<svg viewBox="0 0 160 160" xmlns="http://www.w3.org/2000/svg" fill-rule="evenodd" clip-rule="evenodd"
    stroke-linejoin="round" stroke-miterlimit="2">
    <ellipse cx="80" cy="79.98" rx="80" ry="79.98" fill="#000000" />
    <path
        d="M98.686 30.785A50.236 50.236 0 0081 27.59c-27.822 0-50.41 22.588-50.41 50.41 0 23.11 15.586 42.61 36.811 48.55V45.868a34.68 34.68 0 0111.607-2.698v96.818C45.697 138.934 18.981 111.562 18.981 78 18.98 43.77 46.77 15.98 81 15.98c7.654 0 14.985 1.39 21.761 3.931l-4.075 10.874zm32.723 47.214v-.008l11.61.001V78c0 29.585-20.76 54.359-48.495 60.538v-11.966c17.586-4.894 31.312-19.09 35.536-36.943h-19.988V78h21.337z"
        fill="#ffffff" />
</svg>
